<?xml version="1.0" encoding="UTF-8" standalone="no"?>
<svg
   xmlns:dc="http://purl.org/dc/elements/1.1/"
   xmlns:cc="http://creativecommons.org/ns#"
   xmlns:rdf="http://www.w3.org/1999/02/22-rdf-syntax-ns#"
   xmlns:svg="http://www.w3.org/2000/svg"
   xmlns="http://www.w3.org/2000/svg"
   xmlns:sodipodi="http://sodipodi.sourceforge.net/DTD/sodipodi-0.dtd"
   xmlns:inkscape="http://www.inkscape.org/namespaces/inkscape"
   width="894.11432"
   height="207.96545"
   id="svg3943"
   version="1.1"
   inkscape:version="1.0.2 (e86c870879, 2021-01-15)"
   sodipodi:docname="etimo-logo-white.svg">
  <defs
     id="defs3945" />
  <sodipodi:namedview
     id="base"
     pagecolor="#000000"
     bordercolor="#666666"
     borderopacity="1.0"
     inkscape:pageopacity="0"
     inkscape:pageshadow="2"
     inkscape:zoom="0.5721651"
     inkscape:cx="75.814241"
     inkscape:cy="505.01554"
     inkscape:document-units="px"
     inkscape:current-layer="text3016-0-4"
     showgrid="false"
     inkscape:window-width="1920"
     inkscape:window-height="1145"
     inkscape:window-x="0"
     inkscape:window-y="0"
     inkscape:window-maximized="1"
     inkscape:document-rotation="0"
     fit-margin-top="0"
     fit-margin-left="0"
     fit-margin-right="0"
     fit-margin-bottom="0" />
  <metadata
     id="metadata3948">
    <rdf:RDF>
      <cc:Work
         rdf:about="">
        <dc:format>image/svg+xml</dc:format>
        <dc:type
           rdf:resource="http://purl.org/dc/dcmitype/StillImage" />
        <dc:title></dc:title>
      </cc:Work>
    </rdf:RDF>
  </metadata>
  <g
     inkscape:label="Layer 1"
     inkscape:groupmode="layer"
     id="layer1"
     transform="translate(-3.28072,-617.06982)">
    <g
       id="g83"
       style="fill:#f9f9f9"
       transform="translate(-111.71928,-112.3269)">
      <g
         aria-label="ETIMO"
         id="text3016-0-4"
         style="font-style:normal;font-variant:normal;font-weight:normal;font-stretch:normal;line-height:0%;font-family:'Segoe UI';-inkscape-font-specification:'Segoe UI';text-align:start;letter-spacing:0px;word-spacing:0px;writing-mode:lr-tb;text-anchor:start;fill:#f9f9f9;fill-opacity:1;stroke:none">
        <path
           d="m 361.35559,752.1764 h 98.43597 v 17.72682 h -77.37234 v 46.08972 h 74.13981 v 17.72682 h -74.13981 v 56.41298 h 79.2493 v 17.72682 H 361.35559 Z"
           style="font-size:213.556px;line-height:1.25;fill:#f9f9f9"
           id="path19" />
        <path
           d="m 474.70295,752.1764 h 131.69981 v 17.72682 H 551.13681 V 907.85956 H 529.9689 V 769.90322 h -55.26595 z"
           style="font-size:213.556px;line-height:1.25;fill:#f9f9f9"
           id="path21" />
        <path
           d="m 626.73645,752.1764 h 21.06363 v 155.68316 h -21.06363 z"
           style="font-size:213.556px;line-height:1.25;fill:#f9f9f9"
           id="path23" />
        <path
           d="m 689.71881,752.1764 h 31.3869 L 760.83463,858.1202 800.7721,752.1764 H 832.159 V 907.85956 H 811.61675 V 771.15452 l -40.14603,106.778 h -21.1679 l -40.14603,-106.778 v 136.70504 h -20.43798 z"
           style="font-size:213.556px;line-height:1.25;fill:#f9f9f9"
           id="path25" />
        <path
           d="m 937.16428,766.46213 q -22.94059,0 -36.49639,17.10116 -13.45152,17.10117 -13.45152,46.6111 0,29.40566 13.45152,46.50683 13.5558,17.10116 36.49639,17.10116 22.94058,0 36.28783,-17.10116 13.45153,-17.10117 13.45153,-46.50683 0,-29.50993 -13.45153,-46.6111 -13.34725,-17.10116 -36.28783,-17.10116 z m 0,-17.10117 q 32.74247,0 52.34624,22.00211 19.60378,21.89783 19.60378,58.81132 0,36.80922 -19.60378,58.81132 -19.60377,21.89783 -52.34624,21.89783 -32.84675,0 -52.5548,-21.89783 -19.60377,-21.89783 -19.60377,-58.81132 0,-36.91349 19.60377,-58.81132 19.70805,-22.00211 52.5548,-22.00211 z"
           style="font-size:213.556px;line-height:1.25;fill:#f9f9f9"
           id="path27" />
      </g>
      <path
         style="fill:#f9f9f9;fill-opacity:1"
         inkscape:connector-curvature="0"
         d="m 128.01515,747.71618 c -7.18668,0 -13.01515,5.8219 -13.01515,13.01185 0,7.17679 5.8219,12.99534 13.00857,13.00525 7.18337,0 13.00855,-5.82188 13.00855,-13.00525 0.002,-7.17677 -5.81855,-13.01185 -13.00197,-13.01185 z m 82.61072,133.16129 h 32.33025 V 772.50362 H 210.62587 Z M 226.7959,729.39673 c -10.05145,-0.0106 -18.21724,8.15262 -18.21724,18.20735 0,10.04818 8.14925,18.20405 18.20406,18.21402 10.05475,0 18.20738,-8.14934 18.21728,-18.2041 0.002,-10.05806 -8.14599,-18.21727 -18.2041,-18.21727 z m -49.39364,47.43543 c -10.65809,0 -19.29857,8.63713 -19.29857,19.29848 0,10.64817 8.63058,19.29858 19.28866,19.30847 10.66136,0 19.29856,-8.63722 19.30845,-19.29852 0,-10.66135 -8.63722,-19.29856 -19.29854,-19.30843 z m -60.9386,79.08634 h 23.08646 v -77.41167 h -23.08646 z m 43.80591,81.44367 h 34.25874 V 822.50386 h -34.25874 z"
         id="path7-8"
         sodipodi:nodetypes="ssccsccccccsccccsccccccccccccc"
         inkscape:export-xdpi="33.75"
         inkscape:export-ydpi="33.75" />
    </g>
  </g>
</svg>
